<svg width="19" height="19" viewBox="0 0 19 19" fill="none" xmlns="http://www.w3.org/2000/svg">
<g id="Bold / Medicine / Syringe">
<g id="Vector">
<path d="M14.0864 2.91946C13.8605 2.69351 13.4942 2.69351 13.2682 2.91946C13.0423 3.14541 13.0423 3.51174 13.2682 3.73769L13.9811 4.45057L12.707 5.72466L12.0564 5.07403C11.475 4.49261 11.1843 4.20189 10.8537 4.08157C10.5032 3.95397 10.1189 3.95397 9.7683 4.08157C9.43772 4.20189 9.14702 4.49261 8.56561 5.07403L8.47601 5.16369L14.0862 10.7741L14.1759 10.6844C14.7573 10.103 15.048 9.8123 15.1683 9.48172C15.2959 9.13115 15.2959 8.74682 15.1683 8.39624C15.048 8.06566 14.7573 7.77494 14.1759 7.19352L13.5252 6.54289L14.7993 5.2688L15.5123 5.98185C15.7383 6.2078 16.1046 6.2078 16.3305 5.98185C16.5565 5.7559 16.5565 5.38957 16.3305 5.16362L14.0864 2.91946Z" fill="#B98AFF"/>
<path d="M5.26179 8.37794L7.65777 5.98189L13.268 11.5923L12.4032 12.4572L10.1774 10.2313C9.95143 10.0054 9.58511 10.0054 9.35917 10.2313C9.13323 10.4572 9.13323 10.8236 9.35917 11.0495L11.585 13.2754L11.1409 13.7195L9.87118 12.4498C9.64524 12.2238 9.27891 12.2238 9.05297 12.4498C8.82703 12.6757 8.82703 13.0421 9.05297 13.268L10.2689 14.484C8.88465 15.4096 7.04667 15.3709 5.70039 14.3678L3.98766 16.0805C3.76172 16.3065 3.3954 16.3065 3.16946 16.0805C2.94351 15.8546 2.94351 15.4883 3.16946 15.2623L4.88222 13.5495C3.72503 11.9961 3.85155 9.78822 5.26179 8.37794Z" fill="#B98AFF"/>
</g>
</g>
</svg>
