<svg width="18" height="19" viewBox="0 0 18 19" fill="none" xmlns="http://www.w3.org/2000/svg">
<path d="M15.4011 3.09835C14.3028 2 12.535 2 8.99948 2C5.46394 2 3.69617 2 2.59782 3.09835C2.02971 3.66647 1.75545 4.41368 1.62305 5.49199C2.02104 5.04899 2.49927 4.67996 3.03627 4.40634C3.62238 4.1077 4.24998 3.9866 4.94487 3.92983C5.61622 3.87498 6.44228 3.87499 7.45235 3.875H10.5466C11.5567 3.87499 12.3827 3.87498 13.0541 3.92983C13.749 3.9866 14.3766 4.1077 14.9627 4.40634C15.4997 4.67996 15.9779 5.04899 16.3759 5.49199C16.2435 4.41368 15.9692 3.66647 15.4011 3.09835Z" fill="white"/>
<path fill-rule="evenodd" clip-rule="evenodd" d="M1.5 11C1.5 8.8998 1.5 7.8497 1.90873 7.04754C2.26825 6.34193 2.84193 5.76825 3.54754 5.40873C4.3497 5 5.3998 5 7.5 5H10.5C12.6002 5 13.6503 5 14.4525 5.40873C15.1581 5.76825 15.7317 6.34193 16.0913 7.04754C16.5 7.8497 16.5 8.8998 16.5 11C16.5 13.1002 16.5 14.1503 16.0913 14.9525C15.7317 15.6581 15.1581 16.2317 14.4525 16.5913C13.6503 17 12.6002 17 10.5 17H7.5C5.3998 17 4.3497 17 3.54754 16.5913C2.84193 16.2317 2.26825 15.6581 1.90873 14.9525C1.5 14.1503 1.5 13.1002 1.5 11ZM9.39775 8.35225C9.29226 8.24676 9.14918 8.1875 9 8.1875C8.85082 8.1875 8.70774 8.24676 8.60225 8.35225L6.72725 10.2273C6.50758 10.4469 6.50758 10.8031 6.72725 11.0227C6.94692 11.2424 7.30308 11.2424 7.52275 11.0227L8.4375 10.108V13.25C8.4375 13.5607 8.68934 13.8125 9 13.8125C9.31066 13.8125 9.5625 13.5607 9.5625 13.25V10.108L10.4773 11.0227C10.6969 11.2424 11.0531 11.2424 11.2727 11.0227C11.4924 10.8031 11.4924 10.4469 11.2727 10.2273L9.39775 8.35225Z" fill="white"/>
</svg>
