<svg width="18" height="19" viewBox="0 0 18 19" fill="none" xmlns="http://www.w3.org/2000/svg">
<g id="Bold / Arrows / Alt Arrow Right">
<g id="Vector">
<path d="M11.8764 9.2222L6.9035 4.39992C6.5932 4.09902 6 4.28142 6 4.67773L6 14.3223C6 14.7186 6.5932 14.901 6.9035 14.6001L11.8764 9.77781C12.0412 9.61795 12.0412 9.38205 11.8764 9.2222Z" fill="white"/>
<path d="M6.9035 4.39992L6.38139 4.93834L6.38139 4.93834L6.9035 4.39992ZM11.8764 9.2222L12.3985 8.68378L12.3985 8.68378L11.8764 9.2222ZM11.8764 9.77781L11.3542 9.23939L11.8764 9.77781ZM6.9035 14.6001L6.38139 14.0617H6.38139L6.9035 14.6001ZM6 14.3223H5.25H6ZM6 4.67773L6.75 4.67773L6 4.67773ZM6.38139 4.93834L11.3542 9.76061L12.3985 8.68378L7.42562 3.8615L6.38139 4.93834ZM11.3542 9.23939L6.38139 14.0617L7.42562 15.1385L12.3985 10.3162L11.3542 9.23939ZM6.75 14.3223L6.75 4.67773L5.25 4.67773L5.25 14.3223H6.75ZM6.38139 14.0617C6.45991 13.9855 6.53501 13.9994 6.55581 14.0058C6.57324 14.0111 6.61443 14.0277 6.65849 14.0774C6.70862 14.1339 6.75 14.2217 6.75 14.3223H5.25C5.25 14.9542 5.72589 15.3199 6.11497 15.4395C6.50994 15.561 7.0368 15.5155 7.42562 15.1385L6.38139 14.0617ZM11.3542 9.76061C11.3006 9.70855 11.25 9.61691 11.25 9.5C11.25 9.38309 11.3006 9.29145 11.3542 9.23939L12.3985 10.3162C12.8672 9.86172 12.8672 9.13828 12.3985 8.68378L11.3542 9.76061ZM7.42562 3.8615C7.0368 3.48446 6.50995 3.43905 6.11497 3.56049C5.72589 3.68012 5.25 4.04578 5.25 4.67773L6.75 4.67773C6.75 4.77832 6.70862 4.86615 6.65849 4.92263C6.61443 4.97229 6.57324 4.98889 6.55581 4.99425C6.53501 5.00064 6.45991 5.01449 6.38139 4.93834L7.42562 3.8615Z" fill="white"/>
</g>
</g>
</svg>
