<svg width="17" height="16" viewBox="0 0 17 16" fill="none" xmlns="http://www.w3.org/2000/svg">
<g id="Bold / Essentional, UI / Sword">
<g id="Vector">
<path d="M13.5417 2C14.1702 2 14.4845 2 14.6797 2.19526C14.875 2.39052 14.875 2.70479 14.875 3.33333V4.70149C14.875 5.01209 14.875 5.16738 14.8108 5.3029C14.7466 5.43842 14.6264 5.53676 14.386 5.73344L7.54167 11.3333L5.81781 13.0572C5.37336 13.5016 5.15114 13.7239 4.875 13.7239C4.59886 13.7239 4.37664 13.5016 3.93219 13.0572L3.81781 12.9428C3.37336 12.4984 3.15114 12.2761 3.15114 12C3.15114 11.7239 3.37336 11.5016 3.81781 11.0572L5.54167 9.33333L11.1416 2.48902C11.3382 2.24863 11.4366 2.12844 11.5721 2.06422C11.7076 2 11.8629 2 12.1735 2H13.5417Z" fill="#FFBF85"/>
<path d="M10.4217 11.5467L11.9322 13.0572C12.3766 13.5016 12.5989 13.7239 12.875 13.7239C13.1511 13.7239 13.3734 13.5016 13.8178 13.0572L13.9322 12.9428C14.3766 12.4984 14.5989 12.2761 14.5989 12C14.5989 11.7239 14.3766 11.5016 13.9322 11.0572L12.6317 9.75667" fill="#FFBF85"/>
<path d="M7.54167 3.66667L6.60866 2.50041C6.41196 2.25453 6.31361 2.1316 6.17671 2.0658C6.03981 2 5.88237 2 5.5675 2H4.20833C3.57979 2 3.26552 2 3.07026 2.19526C2.875 2.39052 2.875 2.70479 2.875 3.33333V4.70883C2.875 5.01593 2.875 5.16947 2.93794 5.30385C3.00088 5.43823 3.11884 5.53653 3.35475 5.73313L4.875 7" fill="#FFBF85"/>
<path d="M4.18578 8.6438C4.34857 8.47985 4.61345 8.4789 4.77741 8.6417L8.23965 12.0794C8.40361 12.2422 8.40455 12.5071 8.24176 12.671C8.07896 12.835 7.81408 12.8359 7.65013 12.6731L4.18788 9.23543C4.02393 9.07264 4.02298 8.80776 4.18578 8.6438Z" fill="#FFBF85"/>
</g>
</g>
</svg>
