<svg width="16" height="16" viewBox="0 0 16 16" fill="none" xmlns="http://www.w3.org/2000/svg">
<g id="Bold / Essentional, UI / Bolt">
<path id="Vector" d="M3.7797 6.60974L5.82113 3.84771C7.14071 2.06235 7.80049 1.16966 8.41607 1.35831C9.03164 1.54695 9.03164 2.64182 9.03164 4.83157V5.03804C9.03164 5.82784 9.03164 6.22274 9.284 6.47044L9.29735 6.48327C9.55516 6.72574 9.96616 6.72574 10.7882 6.72574C12.2674 6.72574 13.0071 6.72574 13.257 7.17437C13.2612 7.1818 13.2652 7.18928 13.2691 7.19683C13.5051 7.6524 13.0768 8.23181 12.2203 9.39062L10.1789 12.1526C8.85929 13.938 8.19949 14.8307 7.58391 14.642C6.96834 14.4534 6.96835 13.3585 6.96839 11.1687L6.96839 10.9623C6.9684 10.1725 6.96841 9.77762 6.71605 9.52991L6.7027 9.51708C6.44489 9.27461 6.03388 9.27461 5.21186 9.27461C3.73261 9.27461 2.99299 9.27461 2.74302 8.82598C2.73888 8.81855 2.73486 8.81107 2.73095 8.80352C2.49498 8.34795 2.92322 7.76855 3.7797 6.60974Z" fill="#85D3FF"/>
</g>
</svg>
