<svg width="17" height="16" viewBox="0 0 17 16" fill="none" xmlns="http://www.w3.org/2000/svg">
<g id="Bold / Security / Bomb Minimalistic">
<g id="Vector">
<path d="M11.043 1.8859C11.29 1.76241 11.5903 1.86252 11.7138 2.10951L12.0472 2.77618C12.1707 3.02317 12.0706 3.3235 11.8236 3.447C11.5766 3.57049 11.2762 3.47038 11.1527 3.22339L10.8194 2.55672C10.6959 2.30973 10.796 2.0094 11.043 1.8859Z" fill="#5ECF92"/>
<path d="M13.1527 4.77618C13.2762 4.52919 13.5766 4.42908 13.8236 4.55257L14.4902 4.8859C14.7372 5.0094 14.8373 5.30973 14.7138 5.55672C14.5903 5.80371 14.29 5.90383 14.043 5.78033L13.3763 5.447C13.1294 5.3235 13.0292 5.02317 13.1527 4.77618Z" fill="#5ECF92"/>
<path d="M14.2868 3.02C14.4821 2.82474 14.4821 2.50816 14.2868 2.3129C14.0916 2.11764 13.775 2.11764 13.5797 2.3129L12.9131 2.97956C12.7178 3.17483 12.7178 3.49141 12.9131 3.68667C13.1083 3.88193 13.4249 3.88193 13.6202 3.68667L14.2868 3.02Z" fill="#5ECF92"/>
<path d="M11.9333 9.66645C11.9333 12.4279 9.69471 14.6665 6.93329 14.6665C4.17186 14.6665 1.93329 12.4279 1.93329 9.66645C1.93329 6.90503 4.17186 4.66645 6.93329 4.66645C9.69471 4.66645 11.9333 6.90503 11.9333 9.66645Z" fill="#5ECF92"/>
<path d="M12.2868 5.02L11.5147 5.79203C11.299 5.53721 11.0625 5.30063 10.8076 5.08492L11.5797 4.3129C11.7749 4.11764 12.0915 4.11764 12.2868 4.3129C12.482 4.50816 12.482 4.82474 12.2868 5.02Z" fill="#5ECF92"/>
</g>
</g>
</svg>
