<svg width="18" height="19" viewBox="0 0 18 19" fill="none" xmlns="http://www.w3.org/2000/svg">
<path d="M16.2067 10.6712L16.3786 8.84474C16.5136 7.41027 16.5812 6.69304 16.3358 6.39656C16.203 6.23617 16.0225 6.1379 15.8295 6.12095C15.4727 6.08961 15.0247 6.59968 14.1286 7.6198C13.6652 8.14737 13.4335 8.41115 13.175 8.452C13.0317 8.47464 12.8858 8.45137 12.7536 8.38481C12.5149 8.26469 12.3557 7.93859 12.0374 7.28638L10.3598 3.84864C9.75836 2.61621 9.45765 2 9 2C8.54235 2 8.24164 2.61621 7.6402 3.84864L5.96255 7.28639C5.64427 7.93859 5.48513 8.26469 5.24644 8.38481C5.11419 8.45137 4.96826 8.47464 4.82503 8.452C4.56654 8.41115 4.33483 8.14737 3.8714 7.6198C2.97531 6.59968 2.52726 6.08961 2.17049 6.12095C1.97749 6.1379 1.79698 6.23617 1.66424 6.39656C1.41885 6.69304 1.48635 7.41027 1.62136 8.84474L1.79325 10.6712C2.07649 13.6806 2.21811 15.1854 3.10507 16.0927C3.99203 17 5.32137 17 7.98006 17H10.0199C12.6786 17 14.008 17 14.8949 16.0927C15.7819 15.1854 15.9235 13.6806 16.2067 10.6712Z" fill="white"/>
</svg>
