<svg width="25" height="24" viewBox="0 0 25 24" fill="none" xmlns="http://www.w3.org/2000/svg">
<g id="Icon" filter="url(#filter0_d_4771_4622)">
<path id="Vector" fill-rule="evenodd" clip-rule="evenodd" d="M22.25 12C22.25 17.5228 17.7728 22 12.25 22C6.72715 22 2.25 17.5228 2.25 12C2.25 6.47715 6.72715 2 12.25 2C17.7728 2 22.25 6.47715 22.25 12ZM9.21963 8.96965C9.51252 8.67676 9.98739 8.67676 10.2803 8.96965L12.25 10.9393L14.2196 8.96967C14.5125 8.67678 14.9874 8.67678 15.2803 8.96967C15.5732 9.26256 15.5732 9.73744 15.2803 10.0303L13.3106 12L15.2803 13.9696C15.5732 14.2625 15.5732 14.7374 15.2803 15.0303C14.9874 15.3232 14.5125 15.3232 14.2196 15.0303L12.25 13.0607L10.2803 15.0303C9.98742 15.3232 9.51254 15.3232 9.21965 15.0303C8.92676 14.7374 8.92676 14.2625 9.21965 13.9697L11.1893 12L9.21963 10.0303C8.92673 9.73742 8.92673 9.26254 9.21963 8.96965Z" fill="white"/>
</g>
<defs>
<filter id="filter0_d_4771_4622" x="0.25" y="0" width="24" height="26" filterUnits="userSpaceOnUse" color-interpolation-filters="sRGB">
<feFlood flood-opacity="0" result="BackgroundImageFix"/>
<feColorMatrix in="SourceAlpha" type="matrix" values="0 0 0 0 0 0 0 0 0 0 0 0 0 0 0 0 0 0 127 0" result="hardAlpha"/>
<feOffset dy="2"/>
<feComposite in2="hardAlpha" operator="out"/>
<feColorMatrix type="matrix" values="0 0 0 0 0 0 0 0 0 0 0 0 0 0 0 0 0 0 0.15 0"/>
<feBlend mode="normal" in2="BackgroundImageFix" result="effect1_dropShadow_4771_4622"/>
<feBlend mode="normal" in="SourceGraphic" in2="effect1_dropShadow_4771_4622" result="shape"/>
</filter>
</defs>
</svg>
