<svg width="17" height="16" viewBox="0 0 17 16" fill="none" xmlns="http://www.w3.org/2000/svg">
<g id="Bold / Security / Shield Minimalistic">
<path id="Vector" d="M2.625 6.9446C2.625 4.81288 2.625 3.74702 2.87668 3.38844C3.12835 3.02986 4.13055 2.6868 6.13494 2.00069L6.51682 1.86997C7.56166 1.51232 8.08407 1.3335 8.625 1.3335C9.16593 1.3335 9.68835 1.51232 10.7332 1.86997L11.1151 2.00069C13.1195 2.6868 14.1216 3.02986 14.3733 3.38844C14.625 3.74702 14.625 4.81288 14.625 6.9446C14.625 7.26659 14.625 7.61577 14.625 7.9944C14.625 11.7531 11.799 13.5772 10.026 14.3517C9.54499 14.5618 9.30451 14.6668 8.625 14.6668C7.94549 14.6668 7.70501 14.5618 7.22404 14.3517C5.45097 13.5772 2.625 11.7531 2.625 7.9944C2.625 7.61577 2.625 7.26659 2.625 6.9446Z" fill="#9E90F3"/>
</g>
</svg>
