<svg width="18" height="19" viewBox="0 0 18 19" fill="none" xmlns="http://www.w3.org/2000/svg">
<path d="M8.4375 6.38561C7.73557 6.57754 7.3125 7.11616 7.3125 7.625C7.3125 8.13384 7.73557 8.67246 8.4375 8.86439V6.38561Z" fill="white"/>
<path d="M9.5625 10.1356V12.6144C10.2644 12.4225 10.6875 11.8838 10.6875 11.375C10.6875 10.8662 10.2644 10.3275 9.5625 10.1356Z" fill="white"/>
<path fill-rule="evenodd" clip-rule="evenodd" d="M16.5 9.5C16.5 13.6421 13.1421 17 9 17C4.85786 17 1.5 13.6421 1.5 9.5C1.5 5.35786 4.85786 2 9 2C13.1421 2 16.5 5.35786 16.5 9.5ZM9 4.4375C9.31066 4.4375 9.5625 4.68934 9.5625 5V5.23755C10.7853 5.4565 11.8125 6.37521 11.8125 7.625C11.8125 7.93566 11.5607 8.1875 11.25 8.1875C10.9393 8.1875 10.6875 7.93566 10.6875 7.625C10.6875 7.11616 10.2644 6.57754 9.5625 6.38561V8.98755C10.7853 9.2065 11.8125 10.1252 11.8125 11.375C11.8125 12.6248 10.7853 13.5435 9.5625 13.7624V14C9.5625 14.3107 9.31066 14.5625 9 14.5625C8.68934 14.5625 8.4375 14.3107 8.4375 14V13.7624C7.21468 13.5435 6.1875 12.6248 6.1875 11.375C6.1875 11.0643 6.43934 10.8125 6.75 10.8125C7.06066 10.8125 7.3125 11.0643 7.3125 11.375C7.3125 11.8838 7.73557 12.4225 8.4375 12.6144V10.0124C7.21468 9.7935 6.1875 8.87479 6.1875 7.625C6.1875 6.37521 7.21468 5.4565 8.4375 5.23755V5C8.4375 4.68934 8.68934 4.4375 9 4.4375Z" fill="white"/>
</svg>
