<svg width="17" height="16" viewBox="0 0 17 16" fill="none" xmlns="http://www.w3.org/2000/svg">
<path fill-rule="evenodd" clip-rule="evenodd" d="M8.49992 14.6668C12.1818 14.6668 15.1666 11.6821 15.1666 8.00016C15.1666 4.31826 12.1818 1.3335 8.49992 1.3335C4.81802 1.3335 1.83325 4.31826 1.83325 8.00016C1.83325 11.6821 4.81802 14.6668 8.49992 14.6668ZM6.09824 10.3691C6.26267 10.1472 6.57582 10.1007 6.79766 10.2651C7.28322 10.6251 7.86932 10.8335 8.49992 10.8335C9.13052 10.8335 9.71662 10.6251 10.2022 10.2651C10.424 10.1007 10.7372 10.1472 10.9016 10.3691C11.066 10.5909 11.0195 10.9041 10.7977 11.0685C10.1494 11.549 9.35657 11.8335 8.49992 11.8335C7.64327 11.8335 6.85045 11.549 6.20218 11.0685C5.98033 10.9041 5.9338 10.5909 6.09824 10.3691ZM11.1666 7.00016C11.1666 7.55245 10.8681 8.00016 10.4999 8.00016C10.1317 8.00016 9.83325 7.55245 9.83325 7.00016C9.83325 6.44788 10.1317 6.00016 10.4999 6.00016C10.8681 6.00016 11.1666 6.44788 11.1666 7.00016ZM6.49992 8.00016C6.86811 8.00016 7.16659 7.55245 7.16659 7.00016C7.16659 6.44788 6.86811 6.00016 6.49992 6.00016C6.13173 6.00016 5.83325 6.44788 5.83325 7.00016C5.83325 7.55245 6.13173 8.00016 6.49992 8.00016Z" fill="#5ECF92"/>
</svg>
