<svg width="19" height="19" viewBox="0 0 19 19" fill="none" xmlns="http://www.w3.org/2000/svg">
<g id="Bold / Nature, Travel / Fire">
<path id="Vector" d="M9.87429 16.8507C12.2187 16.3808 15.25 14.6943 15.25 10.3331C15.25 6.36445 12.345 3.7217 10.2561 2.50739C9.79263 2.23794 9.25 2.5923 9.25 3.12844V4.4998C9.25 5.5812 8.79533 7.55509 7.53199 8.37611C6.88699 8.79528 6.19039 8.1679 6.112 7.40266L6.04763 6.77429C5.9728 6.04378 5.22881 5.60032 4.64497 6.04571C3.5961 6.84583 2.5 8.24695 2.5 10.3331C2.5 15.6665 6.46667 16.9998 8.45 16.9998C8.56536 16.9998 8.68659 16.9964 8.8128 16.9891C7.83348 16.9054 6.25 16.2978 6.25 14.3329C6.25 12.7959 7.37131 11.7561 8.22327 11.2507C8.4524 11.1148 8.72059 11.2913 8.72059 11.5577V11.9996C8.72059 12.3378 8.85138 12.8664 9.16272 13.2283C9.51504 13.6378 10.0322 13.2088 10.0739 12.6702C10.087 12.5003 10.2579 12.3921 10.4051 12.4781C10.886 12.7592 11.5 13.3597 11.5 14.3329C11.5 15.8689 10.6533 16.5755 9.87429 16.8507Z" fill="#EB4C56"/>
</g>
</svg>
