<svg width="17" height="16" viewBox="0 0 17 16" fill="none" xmlns="http://www.w3.org/2000/svg">
<g id="Bold / Essentional, UI / Sword">
<g id="Vector">
<path d="M12.8666 2C13.4952 2 13.8095 2 14.0047 2.19526C14.2 2.39052 14.2 2.70479 14.2 3.33333V4.70149C14.2 5.01209 14.2 5.16738 14.1358 5.3029C14.0715 5.43842 13.9513 5.53676 13.711 5.73344L6.86665 11.3333L5.14279 13.0572C4.69835 13.5016 4.47612 13.7239 4.19998 13.7239C3.92384 13.7239 3.70162 13.5016 3.25717 13.0572L3.14279 12.9428C2.69835 12.4984 2.47612 12.2761 2.47612 12C2.47612 11.7239 2.69835 11.5016 3.14279 11.0572L4.86665 9.33333L10.4665 2.48902C10.6632 2.24863 10.7616 2.12844 10.8971 2.06422C11.0326 2 11.1879 2 11.4985 2H12.8666Z" fill="#FFBF85"/>
<path d="M9.74665 11.5467L11.2572 13.0572C11.7016 13.5016 11.9238 13.7239 12.2 13.7239C12.4761 13.7239 12.6983 13.5016 13.1428 13.0572L13.2572 12.9428C13.7016 12.4984 13.9238 12.2761 13.9238 12C13.9238 11.7239 13.7016 11.5016 13.2572 11.0572L11.9566 9.75667" fill="#FFBF85"/>
<path d="M6.86665 3.66667L5.93364 2.50041C5.73694 2.25453 5.63859 2.1316 5.50169 2.0658C5.36479 2 5.20735 2 4.89248 2H3.53331C2.90478 2 2.59051 2 2.39524 2.19526C2.19998 2.39052 2.19998 2.70479 2.19998 3.33333V4.70883C2.19998 5.01593 2.19998 5.16947 2.26292 5.30385C2.32586 5.43823 2.44382 5.53653 2.67974 5.73313L4.19998 7" fill="#FFBF85"/>
<path d="M3.51076 8.6438C3.67355 8.47985 3.93843 8.4789 4.10239 8.6417L7.56463 12.0794C7.72859 12.2422 7.72953 12.5071 7.56674 12.671C7.40395 12.835 7.13906 12.8359 6.97511 12.6731L3.51286 9.23543C3.34891 9.07264 3.34796 8.80776 3.51076 8.6438Z" fill="#FFBF85"/>
</g>
</g>
</svg>
