<svg width="17" height="16" viewBox="0 0 17 16" fill="none" xmlns="http://www.w3.org/2000/svg">
<path fill-rule="evenodd" clip-rule="evenodd" d="M8.50004 14.6668C12.1819 14.6668 15.1667 11.6821 15.1667 8.00016C15.1667 4.31826 12.1819 1.3335 8.50004 1.3335C4.81814 1.3335 1.83337 4.31826 1.83337 8.00016C1.83337 11.6821 4.81814 14.6668 8.50004 14.6668ZM5.5334 6.40019C5.31249 6.23451 5.26772 5.92111 5.4334 5.70019C5.59909 5.47928 5.91249 5.43451 6.1334 5.60019L7.46674 6.60019C7.59264 6.69462 7.66674 6.84281 7.66674 7.00019C7.66674 7.15757 7.59264 7.30577 7.46674 7.40019L6.1334 8.40019C5.91249 8.56588 5.59909 8.52111 5.4334 8.30019C5.26772 8.07928 5.31249 7.76588 5.5334 7.60019L6.3334 7.00019L5.5334 6.40019ZM11.5667 5.70019C11.7324 5.92111 11.6877 6.23451 11.4667 6.40019L10.6667 7.00019L11.4667 7.60019C11.6877 7.76588 11.7324 8.07928 11.5667 8.30019C11.4011 8.52111 11.0877 8.56588 10.8667 8.40019L9.5334 7.40019C9.4075 7.30577 9.3334 7.15757 9.3334 7.00019C9.3334 6.84281 9.4075 6.69462 9.5334 6.60019L10.8667 5.60019C11.0877 5.43451 11.4011 5.47928 11.5667 5.70019ZM10.8536 11.0204C10.6584 11.2157 10.3418 11.2157 10.1465 11.0204L9.83311 10.707C9.45922 11.0599 8.87385 11.0598 8.50007 10.7068C8.12629 11.0598 7.54092 11.0599 7.16703 10.707L6.85362 11.0204C6.65836 11.2157 6.34178 11.2157 6.14652 11.0204C5.95125 10.8252 5.95125 10.5086 6.14652 10.3133L6.47985 9.97999C6.85254 9.6073 7.45272 9.60075 7.8334 9.96034C8.20728 9.60719 8.79286 9.60719 9.16674 9.96034C9.54742 9.60075 10.1476 9.6073 10.5203 9.97999L10.8536 10.3133C11.0489 10.5086 11.0489 10.8252 10.8536 11.0204Z" fill="#FF6565"/>
</svg>
