<svg width="18" height="19" viewBox="0 0 18 19" fill="none" xmlns="http://www.w3.org/2000/svg">
<path d="M1.8272 4.35941C1.5 4.73185 1.5 5.37042 1.5 6.64757V13.6925C1.5 14.597 1.5 15.0493 1.73595 15.3897C1.97189 15.7302 2.38441 15.8732 3.20943 16.1592L4.18007 16.4958C4.70577 16.678 5.11028 16.8182 5.44975 16.9085C5.6712 16.9675 5.875 16.7936 5.875 16.5645V5.20184C5.875 5.01515 5.73723 4.8576 5.55627 4.8117C5.26435 4.73765 4.91345 4.616 4.43251 4.44926C3.26757 4.0454 2.6851 3.84346 2.24191 4.04853C2.08456 4.12134 1.94337 4.22718 1.8272 4.35941Z" fill="white"/>
<path d="M9.46529 3.10998L8.31331 3.90874C7.89656 4.1977 7.59114 4.40947 7.33032 4.56045C7.20671 4.63201 7.125 4.76145 7.125 4.90427V16.1895C7.125 16.4674 7.41298 16.641 7.64712 16.4912C7.89842 16.3304 8.18617 16.1309 8.53471 15.8892L9.68669 15.0905C10.1034 14.8015 10.4089 14.5897 10.6697 14.4388C10.7933 14.3672 10.875 14.2378 10.875 14.0949V2.80974C10.875 2.5318 10.587 2.35826 10.3529 2.50804C10.1016 2.6688 9.81382 2.86832 9.46529 3.10998Z" fill="white"/>
<path d="M14.7906 2.83997L13.8199 2.50346C13.2942 2.32119 12.8897 2.18098 12.5503 2.09067C12.3288 2.03176 12.125 2.20559 12.125 2.43475V13.7974C12.125 13.9841 12.2628 14.1416 12.4437 14.1875C12.7356 14.2616 13.0866 14.3832 13.5675 14.55C14.7324 14.9538 15.3149 15.1558 15.7581 14.9507C15.9154 14.8779 16.0566 14.772 16.1728 14.6398C16.5 14.2674 16.5 13.6288 16.5 12.3516V5.30668C16.5 4.40219 16.5 3.94995 16.2641 3.60948C16.0281 3.269 15.6156 3.12599 14.7906 2.83997Z" fill="white"/>
</svg>
