<svg width="16" height="16" viewBox="0 0 16 16" fill="none" xmlns="http://www.w3.org/2000/svg">
<path fill-rule="evenodd" clip-rule="evenodd" d="M8.00004 14.6668C11.6819 14.6668 14.6667 11.6821 14.6667 8.00016C14.6667 4.31826 11.6819 1.3335 8.00004 1.3335C4.31814 1.3335 1.33337 4.31826 1.33337 8.00016C1.33337 11.6821 4.31814 14.6668 8.00004 14.6668ZM5.50004 10.6668C5.50004 10.3907 5.7239 10.1668 6.00004 10.1668H10C10.2762 10.1668 10.5 10.3907 10.5 10.6668C10.5 10.943 10.2762 11.1668 10 11.1668H6.00004C5.7239 11.1668 5.50004 10.943 5.50004 10.6668ZM6.66671 7.00016C6.66671 7.55245 6.36823 8.00016 6.00004 8.00016C5.63185 8.00016 5.33337 7.55245 5.33337 7.00016C5.33337 6.44788 5.63185 6.00016 6.00004 6.00016C6.36823 6.00016 6.66671 6.44788 6.66671 7.00016ZM10 8.00016C10.3682 8.00016 10.6667 7.55245 10.6667 7.00016C10.6667 6.44788 10.3682 6.00016 10 6.00016C9.63185 6.00016 9.33337 6.44788 9.33337 7.00016C9.33337 7.55245 9.63185 8.00016 10 8.00016Z" fill="#FFA722"/>
</svg>
