<svg width="25" height="24" viewBox="0 0 25 24" fill="none" xmlns="http://www.w3.org/2000/svg">
<g filter="url(#filter0_d_4520_1857)">
<path fill-rule="evenodd" clip-rule="evenodd" d="M11.0119 4.43057C10.6974 4.70014 10.661 5.17361 10.9306 5.48811L16.5122 12L10.9306 18.5119C10.661 18.8264 10.6974 19.2999 11.0119 19.5695C11.3264 19.839 11.7999 19.8026 12.0694 19.4881L18.0694 12.4881C18.3102 12.2072 18.3102 11.7928 18.0694 11.5119L12.0694 4.51192C11.7999 4.19743 11.3264 4.161 11.0119 4.43057Z" fill="white"/>
<path d="M6.75 5.00005C6.75 4.68619 6.94543 4.40553 7.23979 4.29664C7.53415 4.18774 7.86519 4.27366 8.06944 4.51196L14.0694 11.512C14.3102 11.7928 14.3102 12.2073 14.0694 12.4881L8.06944 19.4881C7.86519 19.7264 7.53415 19.8124 7.23979 19.7035C6.94543 19.5946 6.75 19.3139 6.75 19L6.75 5.00005Z" fill="white"/>
</g>
<defs>
<filter id="filter0_d_4520_1857" x="0.5" y="0" width="24" height="26" filterUnits="userSpaceOnUse" color-interpolation-filters="sRGB">
<feFlood flood-opacity="0" result="BackgroundImageFix"/>
<feColorMatrix in="SourceAlpha" type="matrix" values="0 0 0 0 0 0 0 0 0 0 0 0 0 0 0 0 0 0 127 0" result="hardAlpha"/>
<feOffset dy="2"/>
<feComposite in2="hardAlpha" operator="out"/>
<feColorMatrix type="matrix" values="0 0 0 0 0 0 0 0 0 0 0 0 0 0 0 0 0 0 0.15 0"/>
<feBlend mode="normal" in2="BackgroundImageFix" result="effect1_dropShadow_4520_1857"/>
<feBlend mode="normal" in="SourceGraphic" in2="effect1_dropShadow_4520_1857" result="shape"/>
</filter>
</defs>
</svg>
