<svg width="19" height="19" viewBox="0 0 19 19" fill="none" xmlns="http://www.w3.org/2000/svg">
<g id="Bold / Essentional, UI / Ghost">
<path id="Vector" fill-rule="evenodd" clip-rule="evenodd" d="M16.75 14.9044V9.5C16.75 5.35786 13.3921 2 9.25 2C5.10786 2 1.75 5.35786 1.75 9.5V14.9044C1.75 15.8672 2.76323 16.4934 3.6244 16.0628C4.32044 15.7148 5.1496 15.7664 5.7971 16.1981C6.52552 16.6837 7.47448 16.6837 8.2029 16.1981L8.46739 16.0217C8.9413 15.7058 9.5587 15.7058 10.0326 16.0217L10.2971 16.1981C11.0255 16.6837 11.9745 16.6837 12.7029 16.1981C13.3504 15.7664 14.1796 15.7148 14.8756 16.0628C15.7368 16.4934 16.75 15.8672 16.75 14.9044ZM12.25 8.375C12.25 8.99632 11.9142 9.5 11.5 9.5C11.0858 9.5 10.75 8.99632 10.75 8.375C10.75 7.75368 11.0858 7.25 11.5 7.25C11.9142 7.25 12.25 7.75368 12.25 8.375ZM7 9.5C7.41421 9.5 7.75 8.99632 7.75 8.375C7.75 7.75368 7.41421 7.25 7 7.25C6.58579 7.25 6.25 7.75368 6.25 8.375C6.25 8.99632 6.58579 9.5 7 9.5Z" fill="#D4ADEC"/>
</g>
</svg>
