<svg width="17" height="16" viewBox="0 0 17 16" fill="none" xmlns="http://www.w3.org/2000/svg">
<g id="Bold / Security / Shield Minimalistic">
<path id="Vector" d="M2.39999 6.9446C2.39999 4.81288 2.39999 3.74702 2.65167 3.38844C2.90335 3.02986 3.90554 2.6868 5.90993 2.00069L6.29181 1.86997C7.33665 1.51232 7.85907 1.3335 8.39999 1.3335C8.94092 1.3335 9.46334 1.51232 10.5082 1.86997L10.8901 2.00069C12.8944 2.6868 13.8966 3.02986 14.1483 3.38844C14.4 3.74702 14.4 4.81288 14.4 6.9446C14.4 7.26659 14.4 7.61577 14.4 7.9944C14.4 11.7531 11.574 13.5772 9.80095 14.3517C9.31998 14.5618 9.0795 14.6668 8.39999 14.6668C7.72049 14.6668 7.48 14.5618 6.99903 14.3517C5.22597 13.5772 2.39999 11.7531 2.39999 7.9944C2.39999 7.61577 2.39999 7.26659 2.39999 6.9446Z" fill="#9E90F3"/>
</g>
</svg>
