<svg width="19" height="19" viewBox="0 0 19 19" fill="none" xmlns="http://www.w3.org/2000/svg">
<g id="Bold / Essentional, UI / Sledgehammer">
<path id="Vector" d="M6.45284 3.95284C7.75473 2.65095 8.40568 2 9.21457 2C10.0235 2 10.6744 2.65095 11.9763 3.95284L15.2904 7.26692C16.5923 8.56881 17.2432 9.21976 17.2432 10.0287C17.2432 10.8375 16.5923 11.4885 15.2904 12.7904C13.9885 14.0923 13.3375 14.7432 12.5287 14.7432C11.7198 14.7432 11.0688 14.0923 9.76692 12.7904L6.45284 9.47631C5.15095 8.17441 4.5 7.52347 4.5 6.71457C4.5 5.90568 5.15095 5.25473 6.45284 3.95284Z" fill="#DF7C29"/>
<g id="Vector_2">
<path d="M6.213 10.8273L2.86936 14.171C2.61252 14.4278 2.48411 14.5562 2.40698 14.6898C2.19767 15.0523 2.19767 15.499 2.40698 15.8615C2.48411 15.9951 2.61252 16.1235 2.86934 16.3803C3.12617 16.6372 3.25461 16.7656 3.3882 16.8427C3.75073 17.052 4.19738 17.052 4.5599 16.8427C4.69349 16.7656 4.82191 16.6372 5.07874 16.3804L8.42238 13.0367L6.213 10.8273Z" fill="#DF7C29"/>
<path d="M7.00849 10.0318L7.01179 10.0285L9.22118 12.2379L9.21788 12.2412L7.00849 10.0318Z" fill="#DF7C29"/>
<path d="M15.5014 5.88683C15.6925 5.53036 15.6865 5.09936 15.4834 4.74757C15.4062 4.61398 15.2778 4.48557 15.021 4.22873C14.7642 3.9719 14.6357 3.84348 14.5021 3.76635C14.1504 3.56325 13.7194 3.55723 13.3629 3.7483L15.5014 5.88683Z" fill="#DF7C29"/>
</g>
</g>
</svg>
