<svg width="17" height="16" viewBox="0 0 17 16" fill="none" xmlns="http://www.w3.org/2000/svg">
<g id="Bold / Essentional, UI / Bolt">
<path id="Vector" d="M3.90477 6.60974L5.94619 3.84771C7.26577 2.06235 7.92555 1.16966 8.54113 1.35831C9.1567 1.54695 9.1567 2.64182 9.1567 4.83157V5.03804C9.1567 5.82784 9.1567 6.22274 9.40906 6.47044L9.42241 6.48327C9.68022 6.72574 10.0912 6.72574 10.9132 6.72574C12.3925 6.72574 13.1321 6.72574 13.3821 7.17437C13.3862 7.1818 13.3902 7.18928 13.3942 7.19683C13.6301 7.6524 13.2019 8.23181 12.3454 9.39062L10.3039 12.1526C8.98435 13.938 8.32455 14.8307 7.70897 14.642C7.0934 14.4534 7.09342 13.3585 7.09345 11.1687L7.09345 10.9623C7.09346 10.1725 7.09347 9.77762 6.84111 9.52991L6.82776 9.51708C6.56995 9.27461 6.15894 9.27461 5.33692 9.27461C3.85767 9.27461 3.11805 9.27461 2.86808 8.82598C2.86394 8.81855 2.85992 8.81107 2.85601 8.80352C2.62004 8.34795 3.04828 7.76855 3.90477 6.60974Z" fill="#85D3FF"/>
</g>
</svg>
