<svg width="18" height="19" viewBox="0 0 18 19" fill="none" xmlns="http://www.w3.org/2000/svg">
<path d="M11.4387 8.51675C10.6987 7.63136 10.3287 7.18866 9.90341 7.25685C9.4781 7.32503 9.27912 7.85894 8.88118 8.92677L8.77822 9.20302C8.66514 9.50647 8.6086 9.65819 8.49858 9.76995C8.38857 9.88171 8.23754 9.94087 7.93547 10.0592L7.66047 10.1669C6.5975 10.5832 6.06602 10.7914 6.00541 11.2168C5.94479 11.6423 6.39519 12.0033 7.29598 12.7253L7.52903 12.9121C7.785 13.1173 7.91299 13.2199 7.98708 13.3603C8.06116 13.5007 8.07296 13.6631 8.09655 13.9878L8.11803 14.2834C8.20106 15.4261 8.24257 15.9975 8.63042 16.1922C9.01828 16.387 9.49561 16.0762 10.4503 15.4546L10.6973 15.2938C10.9686 15.1172 11.1042 15.0289 11.26 15.0039C11.4158 14.9789 11.5741 15.0201 11.8908 15.1025L12.179 15.1775C13.2933 15.4674 13.8505 15.6123 14.1508 15.3072C14.4511 15.0021 14.2957 14.449 13.9849 13.3429L13.9045 13.0567C13.8162 12.7423 13.7721 12.5852 13.7943 12.4293C13.8165 12.2734 13.9025 12.1365 14.0746 11.8627L14.2313 11.6135C14.837 10.6499 15.1398 10.1682 14.9375 9.78484C14.7353 9.40151 14.1619 9.37048 13.0152 9.30842L12.7185 9.29236C12.3926 9.27472 12.2297 9.2659 12.0876 9.19456C11.9455 9.12321 11.8404 8.99741 11.6301 8.74581L11.4387 8.51675Z" fill="white"/>
<path d="M11.1584 4.37542L11.2957 4.76679C11.4465 5.19666 11.5219 5.4116 11.6686 5.56993C11.8152 5.72826 12.0166 5.81206 12.4194 5.97966L12.786 6.13225C14.2033 6.72204 14.912 7.01694 14.9928 7.61969C15.0264 7.87059 14.942 8.10566 14.7454 8.36839C14.6789 8.3504 14.6149 8.33574 14.5548 8.32351C14.1602 8.24328 13.6583 8.21623 13.1467 8.18867L12.7794 8.1688C12.7088 8.16498 12.6538 8.16199 12.6068 8.15894C12.5756 8.12246 12.5397 8.07953 12.4934 8.02416L12.2567 7.74091C11.9264 7.34554 11.6033 6.9587 11.3028 6.69014C10.9823 6.40375 10.4466 6.03022 9.72542 6.14583C8.9966 6.26267 8.60784 6.79297 8.3981 7.17146C8.20378 7.52215 8.02902 7.99147 7.85207 8.46664L7.72414 8.80996C7.70252 8.86796 7.68519 8.91444 7.66992 8.95441C7.62993 8.97045 7.58341 8.98869 7.5253 9.01145L7.18369 9.14523C6.71053 9.33041 6.24369 9.51311 5.89609 9.71312C5.52204 9.92835 4.99604 10.3259 4.89175 11.058C4.78844 11.7831 5.17463 12.3125 5.46697 12.6264C5.68484 12.8603 5.97758 13.1071 6.29013 13.3601C5.1137 13.6792 4.48794 13.7983 4.13229 13.4144C3.73186 12.9822 3.93905 12.1986 4.35341 10.6315L4.46062 10.2261C4.57837 9.7808 4.63724 9.55815 4.60764 9.33735C4.57803 9.11655 4.46329 8.9226 4.23382 8.53471L4.02491 8.18157C3.21739 6.81658 2.81363 6.13408 3.08329 5.59103C3.35295 5.04798 4.11744 5.00401 5.64642 4.91609L6.04199 4.89334C6.47648 4.86836 6.69373 4.85587 6.88317 4.75479C7.0726 4.65371 7.21279 4.4755 7.49316 4.11906L7.74841 3.79456C8.73504 2.54025 9.22836 1.9131 9.79545 2.0097C10.3625 2.1063 10.6278 2.86267 11.1584 4.37542Z" fill="white"/>
</svg>
