<svg width="16" height="16" viewBox="0 0 16 16" fill="none" xmlns="http://www.w3.org/2000/svg">
<g id="Bold / Food, Kitchen / Bottle">
<path id="Vector" fill-rule="evenodd" clip-rule="evenodd" d="M10.6617 1.34437C10.618 1.40987 10.574 1.48943 10.5332 1.56318L10.3182 1.95177L8.43312 2.87824C8.38233 2.9032 8.3511 2.91855 8.32125 2.93388C7.23734 3.49047 6.47366 4.53633 6.24375 5.75584C6.23742 5.78946 6.2314 5.82456 6.22146 5.88252L6.22064 5.88732C6.21002 5.94923 6.20533 5.97651 6.20052 6.00284C6.02305 6.97329 5.56261 7.85893 4.88558 8.54011C4.86723 8.55857 4.84806 8.57744 4.80414 8.62062L4.26787 9.14791C3.93186 9.4783 3.66098 9.74464 3.45846 9.97376C3.25174 10.2076 3.08506 10.4363 2.9849 10.6993C2.71747 11.4015 2.80747 12.1974 3.22713 12.8194C3.38454 13.0528 3.59915 13.2365 3.85327 13.4152C4.1021 13.5903 4.42577 13.7852 4.82676 14.0268L5.30211 14.3132C5.70293 14.5546 6.02665 14.7496 6.29652 14.887C6.57123 15.0269 6.83438 15.131 7.1135 15.1572C7.85846 15.2272 8.57941 14.9005 9.03341 14.3013C9.20251 14.0781 9.30849 13.8136 9.39858 13.5121C9.48723 13.2154 9.57267 12.8383 9.67904 12.3688L9.84839 11.6214C9.86226 11.5602 9.86837 11.5332 9.87457 11.5072C10.1029 10.5489 10.6091 9.69161 11.3206 9.05078C11.3399 9.03342 11.36 9.0157 11.4061 8.97509L11.4098 8.97184C11.4529 8.93398 11.4792 8.91083 11.5041 8.88808C12.4093 8.06335 12.8879 6.85188 12.8091 5.61222C12.8069 5.57806 12.804 5.54252 12.7993 5.48387L12.6249 3.30581L12.8616 2.87792C12.8997 2.80908 12.9413 2.73407 12.9721 2.66606C13.0071 2.58877 13.0461 2.48345 13.0519 2.35493C13.0597 2.18331 13.0142 2.01348 12.9218 1.8687C12.8525 1.76027 12.766 1.68856 12.6971 1.6391C12.6365 1.59557 12.563 1.55134 12.4956 1.51075L11.952 1.1833C11.8798 1.1398 11.802 1.09287 11.7314 1.05796C11.6519 1.01861 11.5418 0.973506 11.406 0.965363C11.2262 0.954575 11.0477 1.00237 10.8973 1.10158C10.7837 1.17647 10.7109 1.27054 10.6617 1.34437ZM10.6553 2.90032L11.6365 3.49138L11.8021 5.55876C11.8056 5.60139 11.8076 5.62763 11.8091 5.64768L11.1057 5.88215C10.6864 6.02191 10.2249 5.9396 9.87977 5.66351C9.17836 5.10238 8.21469 5.00029 7.41128 5.402L7.37149 5.42189C7.63263 4.72619 8.13321 4.15458 8.77804 3.82345C8.79912 3.81263 8.82205 3.80134 8.8788 3.77345L10.6553 2.90032Z" fill="#84D4FF"/>
</g>
</svg>
