<svg width="18" height="19" viewBox="0 0 18 19" fill="none" xmlns="http://www.w3.org/2000/svg">
<path d="M16.5 6.62176L16.5 6.67615C16.4999 7.32171 16.4999 7.64449 16.3445 7.90857C16.1891 8.17266 15.907 8.32942 15.3427 8.64293L14.7477 8.97349C15.1577 7.58738 15.2945 6.09811 15.345 4.82448C15.3472 4.76987 15.3497 4.71459 15.3521 4.65872L15.3538 4.61959C15.8423 4.78922 16.1165 4.91568 16.2876 5.15306C16.5 5.44769 16.5 5.83905 16.5 6.62176Z" fill="white"/>
<path d="M1.5 6.62176L1.5 6.67615C1.50002 7.32171 1.50003 7.64449 1.65542 7.90857C1.81081 8.17266 2.09297 8.32942 2.65729 8.64293L3.25261 8.97367C2.84255 7.58751 2.70575 6.09816 2.65519 4.82448C2.65302 4.76987 2.65058 4.71459 2.64811 4.65872L2.64638 4.6195C2.15776 4.78917 1.88344 4.91564 1.71232 5.15306C1.49997 5.44769 1.49998 5.83905 1.5 6.62176Z" fill="white"/>
<path fill-rule="evenodd" clip-rule="evenodd" d="M12.2828 2.26006C11.4398 2.11782 10.3378 2 9.00012 2C7.66246 2 6.56043 2.11782 5.71738 2.26006C4.86334 2.40415 4.43631 2.4762 4.07952 2.91562C3.72274 3.35505 3.74159 3.82998 3.7793 4.77985C3.90877 8.04078 4.61247 12.1138 8.4375 12.4742V15.125H7.36485C7.00734 15.125 6.69953 15.3773 6.62942 15.7279L6.4875 16.4375H4.5C4.18934 16.4375 3.9375 16.6893 3.9375 17C3.9375 17.3107 4.18934 17.5625 4.5 17.5625H13.5C13.8107 17.5625 14.0625 17.3107 14.0625 17C14.0625 16.6893 13.8107 16.4375 13.5 16.4375H11.5125L11.3706 15.7279C11.3005 15.3773 10.9927 15.125 10.6351 15.125H9.5625V12.4743C13.3877 12.114 14.0915 8.04084 14.2209 4.77985C14.2586 3.82998 14.2775 3.35505 13.9207 2.91562C13.5639 2.4762 13.1369 2.40415 12.2828 2.26006ZM9.59026 4.85533C9.80045 4.9424 9.9375 5.14751 9.9375 5.37502V8.37502C9.9375 8.68568 9.68566 8.93752 9.375 8.93752C9.06434 8.93752 8.8125 8.68568 8.8125 8.37502V6.73301L8.64775 6.89776C8.42808 7.11743 8.07192 7.11743 7.85225 6.89776C7.63258 6.67809 7.63258 6.32194 7.85225 6.10227L8.97725 4.97727C9.13813 4.81639 9.38007 4.76827 9.59026 4.85533Z" fill="white"/>
</svg>
