<svg width="14" height="14" viewBox="0 0 14 14" fill="none" xmlns="http://www.w3.org/2000/svg">
<g id="Bold / Essentional, UI / Sword">
<g id="Vector">
<path d="M11.0833 1.75C11.6333 1.75 11.9083 1.75 12.0791 1.92085C12.25 2.09171 12.25 2.36669 12.25 2.91667V4.11381C12.25 4.38557 12.25 4.52146 12.1938 4.64004C12.1376 4.75862 12.0324 4.84466 11.8221 5.01676L5.83333 9.91667L4.32496 11.425C3.93607 11.8139 3.74162 12.0084 3.5 12.0084C3.25838 12.0084 3.06393 11.8139 2.67504 11.425L2.57496 11.325C2.18607 10.9361 1.99162 10.7416 1.99162 10.5C1.99162 10.2584 2.18607 10.0639 2.57496 9.67504L4.08333 8.16667L8.98324 2.17789C9.15533 1.96755 9.24138 1.86239 9.35996 1.80619C9.47854 1.75 9.61443 1.75 9.88619 1.75H11.0833Z" fill="white"/>
<path d="M8.35333 10.1033L9.67504 11.425C10.0639 11.8139 10.2584 12.0084 10.5 12.0084C10.7416 12.0084 10.9361 11.8139 11.325 11.425L11.425 11.325C11.8139 10.9361 12.0084 10.7416 12.0084 10.5C12.0084 10.2584 11.8139 10.0639 11.425 9.67504L10.2871 8.53708" fill="white"/>
<path d="M5.83333 3.20833L5.01695 2.18786C4.84484 1.97272 4.75878 1.86515 4.639 1.80757C4.51921 1.75 4.38145 1.75 4.10594 1.75H2.91667C2.36669 1.75 2.09171 1.75 1.92085 1.92085C1.75 2.09171 1.75 2.36669 1.75 2.91667V4.12023C1.75 4.38894 1.75 4.52329 1.80507 4.64087C1.86015 4.75845 1.96336 4.84447 2.16978 5.01649L3.5 6.125" fill="white"/>
<path d="M2.89693 7.56333C3.03937 7.41986 3.27114 7.41904 3.4146 7.56148L6.44407 10.5695C6.58753 10.7119 6.58836 10.9437 6.44591 11.0871C6.30347 11.2306 6.0717 11.2314 5.92824 11.089L2.89877 8.081C2.75531 7.93856 2.75449 7.70679 2.89693 7.56333Z" fill="white"/>
</g>
</g>
</svg>
