<svg width="24" height="24" viewBox="0 0 24 24" fill="none" xmlns="http://www.w3.org/2000/svg">
<g id="Bold / Nature, Travel / Bee">
<path id="Vector" d="M20.6083 15.4782C19.8059 14.9334 18.6212 14.464 17.0873 14.083C16.1689 13.855 15.2513 13.6896 14.4949 13.5743C14.6508 13.471 14.7971 13.3495 14.9307 13.2096C15.405 12.7129 15.6662 12.0526 15.6662 11.3502C15.6662 11.1858 15.6514 11.024 15.6234 10.8658C15.8133 10.7826 16.0981 10.6996 16.5257 10.6429C16.8037 10.606 17.0005 10.3402 16.9653 10.0492C16.9301 9.75808 16.6764 9.55207 16.3983 9.58885C15.9343 9.65038 15.5506 9.74755 15.2394 9.88267C15.1497 9.7435 15.0467 9.6122 14.9307 9.4908C14.8448 9.40081 14.7536 9.31838 14.658 9.24334C14.8867 8.86925 15.0394 8.34709 15.1232 7.65455C15.1584 7.36347 14.9616 7.09765 14.6836 7.06076C14.4061 7.02409 14.1518 7.22999 14.1166 7.52102C14.0286 8.2487 13.8744 8.58259 13.7605 8.73448C13.7473 8.75204 13.7358 8.77037 13.725 8.78902C13.5402 8.7443 13.3494 8.72063 13.1551 8.72063C12.4843 8.72063 11.8537 8.99418 11.3794 9.4908C11.28 9.59484 11.1906 9.70643 11.1104 9.82371C11.0006 9.03833 10.8441 8.09161 10.6295 7.14429C10.2658 5.53806 9.81747 4.29757 9.29721 3.45726C8.71214 2.51226 8.01238 2.02222 7.21738 2.0007C6.61745 1.98467 6.00761 2.24582 5.4053 2.77751C4.25161 3.79586 3.88374 5.15546 4.36945 6.60585C4.80267 7.89947 5.89961 9.29227 7.62977 10.7457C7.96219 11.0249 8.2826 11.276 8.57022 11.4919C8.50769 11.5057 8.44498 11.5208 8.38192 11.538C7.33789 11.8239 6.25319 12.5672 5.06586 13.8106C4.06803 14.8554 3.35111 16.2845 3.09894 17.7314C2.88013 18.9868 3.02828 20.085 3.5034 20.8259L3.25797 21.0829C3.05985 21.2904 3.05982 21.6267 3.25794 21.8342C3.35703 21.9379 3.48683 21.9898 3.61668 21.9898C3.7465 21.9898 3.87635 21.9379 3.97539 21.8342L4.24603 21.5508C4.72739 21.8463 5.33892 22 6.03243 22C6.36372 22 6.71371 21.965 7.07673 21.894C8.44367 21.6263 9.80273 20.8706 10.8054 19.8207C11.9556 18.6163 12.6737 17.4324 12.9398 16.3017C12.9431 16.2876 12.946 16.2735 12.9491 16.2594C13.1522 16.5554 13.3871 16.8837 13.648 17.2243C15.036 19.0359 16.3661 20.1845 17.6015 20.6382C18.0002 20.7846 18.3915 20.8569 18.7702 20.8569C19.7069 20.8569 20.5649 20.4139 21.2575 19.5536C21.7653 18.9228 22.0148 18.2844 21.9993 17.6561C21.9788 16.8236 21.5108 16.0909 20.6083 15.4782ZM6.89023 20.8496C5.84065 21.0552 4.94404 20.8952 4.49187 20.4217C4.05869 19.9681 3.90744 19.0104 4.09709 17.9221C4.12983 17.7343 4.1728 17.5469 4.2233 17.3608L7.42593 20.7144C7.24815 20.7685 7.06932 20.8145 6.89023 20.8496ZM11.9547 16.0474C11.8118 16.6546 11.4842 17.3127 10.994 17.9897L6.8064 13.6048C7.45929 13.0697 8.07279 12.7208 8.63859 12.5659C8.86733 12.5033 9.08987 12.4719 9.30694 12.4719C9.98453 12.4719 10.6086 12.7781 11.2 13.3974C11.4976 13.7091 11.7155 14.0348 11.8549 14.3777C11.8665 14.4492 11.8916 14.5281 11.9462 14.6427C12.0701 15.081 12.0724 15.5472 11.9547 16.0474ZM13.1551 12.9173C12.7553 12.9173 12.3795 12.7543 12.0968 12.4583C11.8141 12.1623 11.6585 11.7688 11.6585 11.3502C11.6585 10.9316 11.8141 10.5381 12.0968 10.2421C12.3795 9.94608 12.7553 9.78308 13.1551 9.78308C13.5548 9.78308 13.9306 9.94608 14.2133 10.2421C14.496 10.5381 14.6516 10.9316 14.6516 11.3502C14.6516 11.7688 14.496 12.1623 14.2133 12.4583C13.9306 12.7543 13.5548 12.9173 13.1551 12.9173Z" fill="#434343"/>
</g>
</svg>
