<svg width="20" height="21" viewBox="0 0 20 21" fill="none" xmlns="http://www.w3.org/2000/svg">
<g id="Icon" filter="url(#filter0_d_4913_652)">
<path id="Vector" d="M16.718 10.5392L17.1494 8.92936L17.1494 8.92935C17.6529 7.05012 17.9047 6.1105 17.7151 5.29736C17.5654 4.65531 17.2287 4.07207 16.7475 3.6214C16.1381 3.05063 15.1985 2.79886 13.3192 2.29532C11.44 1.79178 10.5004 1.54001 9.68722 1.72961C9.04517 1.87932 8.46193 2.21605 8.01126 2.69723C7.52258 3.21899 7.26774 3.98281 6.88851 5.37118C6.82481 5.60437 6.75761 5.85518 6.6852 6.12542L6.68518 6.12548L6.25382 7.73536C5.75028 9.61459 5.49851 10.5542 5.68811 11.3674C5.83781 12.0094 6.17454 12.5926 6.65572 13.0433C7.26513 13.6141 8.20474 13.8659 10.084 14.3694L10.084 14.3694C11.7778 14.8233 12.7083 15.0726 13.4708 14.9785C13.5543 14.9682 13.6358 14.9538 13.716 14.9351C14.358 14.7854 14.9413 14.4487 15.3919 13.9675C15.9627 13.3581 16.2145 12.4185 16.718 10.5392Z" fill="white"/>
<path id="Vector_2" d="M2.08719 12.2625L2.51856 13.8724C3.0221 15.7516 3.27386 16.6912 3.84464 17.3007C4.29531 17.7818 4.87855 18.1186 5.52059 18.2683C6.33374 18.4579 7.27335 18.2061 9.15258 17.7026L9.15259 17.7026C11.0318 17.199 11.9714 16.9473 12.5808 16.3765C12.6314 16.3291 12.6804 16.2803 12.7277 16.2301C12.4493 16.2067 12.1684 16.1619 11.8829 16.1051C11.3028 15.9898 10.6135 15.8051 9.79837 15.5866L9.70936 15.5628L9.68875 15.5573C8.80177 15.3196 8.06072 15.1206 7.46901 14.9069C6.84677 14.6821 6.28138 14.405 5.80127 13.9553C5.13965 13.3356 4.67665 12.5337 4.4708 11.6509C4.32143 11.0103 4.36414 10.3821 4.48059 9.73079C4.59219 9.10668 4.79262 8.35874 5.03275 7.46262L5.03276 7.46261L5.47808 5.80064L5.49375 5.74219C3.89329 6.17332 3.05088 6.4284 2.4891 6.95457C2.00792 7.40524 1.67119 7.98848 1.52148 8.63053C1.33188 9.44367 1.58365 10.3833 2.08719 12.2625Z" fill="white"/>
</g>
<defs>
<filter id="filter0_d_4913_652" x="0" y="0" width="20" height="22" filterUnits="userSpaceOnUse" color-interpolation-filters="sRGB">
<feFlood flood-opacity="0" result="BackgroundImageFix"/>
<feColorMatrix in="SourceAlpha" type="matrix" values="0 0 0 0 0 0 0 0 0 0 0 0 0 0 0 0 0 0 127 0" result="hardAlpha"/>
<feOffset dy="2"/>
<feComposite in2="hardAlpha" operator="out"/>
<feColorMatrix type="matrix" values="0 0 0 0 0 0 0 0 0 0 0 0 0 0 0 0 0 0 0.15 0"/>
<feBlend mode="normal" in2="BackgroundImageFix" result="effect1_dropShadow_4913_652"/>
<feBlend mode="normal" in="SourceGraphic" in2="effect1_dropShadow_4913_652" result="shape"/>
</filter>
</defs>
</svg>
