<svg width="19" height="19" viewBox="0 0 19 19" fill="none" xmlns="http://www.w3.org/2000/svg">
<g id="Bold / Essentional, UI / Filter">
<path id="Vector" d="M14.75 2.75H4.25C3.18934 2.75 2.65901 2.75 2.3295 3.05915C2 3.3683 2 3.86586 2 4.861V5.37836C2 6.15674 2 6.54593 2.1947 6.86856C2.3894 7.1912 2.7451 7.39143 3.45651 7.79191L5.64128 9.02179C6.1186 9.29048 6.35725 9.42483 6.52813 9.57318C6.88399 9.88212 7.10306 10.2451 7.20233 10.6904C7.25 10.9042 7.25 11.1544 7.25 11.6547L7.25 13.6568C7.25 14.339 7.25 14.6801 7.43894 14.946C7.62789 15.2119 7.96346 15.3431 8.63462 15.6054C10.0436 16.1562 10.7481 16.4316 11.249 16.1183C11.75 15.8049 11.75 15.0889 11.75 13.6568V11.6547C11.75 11.1544 11.75 10.9042 11.7977 10.6904C11.8969 10.2451 12.116 9.88212 12.4719 9.57318C12.6427 9.42483 12.8814 9.29048 13.3587 9.02179L15.5435 7.79191C16.2549 7.39144 16.6106 7.1912 16.8053 6.86856C17 6.54593 17 6.15674 17 5.37836V4.861C17 3.86586 17 3.3683 16.6705 3.05915C16.341 2.75 15.8107 2.75 14.75 2.75Z" fill="white" stroke="white" stroke-width="1.5"/>
</g>
</svg>
