<svg width="14" height="14" viewBox="0 0 14 14" fill="none" xmlns="http://www.w3.org/2000/svg">
<g id="Bold / Medicine / Health">
<path id="Vector" fill-rule="evenodd" clip-rule="evenodd" d="M5.2277 10.7734C3.51135 9.45799 1.16669 7.28502 1.16669 5.23048C1.16669 1.7982 4.37511 0.516751 7.00002 3.16815C9.62493 0.516751 12.8334 1.7982 12.8334 5.23046C12.8334 7.28505 10.4887 9.45801 8.77235 10.7734C7.99536 11.3689 7.60686 11.6667 7.00002 11.6667C6.39319 11.6667 6.00469 11.3689 5.2277 10.7734ZM9.62502 3.64583C9.86664 3.64583 10.0625 3.84171 10.0625 4.08333V4.81251H10.7917C11.0333 4.81251 11.2292 5.00839 11.2292 5.25001C11.2292 5.49163 11.0333 5.68751 10.7917 5.68751H10.0625V6.41667C10.0625 6.65829 9.86664 6.85417 9.62502 6.85417C9.3834 6.85417 9.18752 6.65829 9.18752 6.41667V5.68751L8.45835 5.68751C8.21673 5.68751 8.02085 5.49163 8.02085 5.25001C8.02085 5.00839 8.21673 4.81251 8.45835 4.81251H9.18752V4.08333C9.18752 3.84171 9.3834 3.64583 9.62502 3.64583Z" fill="white"/>
</g>
</svg>
