<svg width="21" height="21" viewBox="0 0 21 21" fill="none" xmlns="http://www.w3.org/2000/svg">
<g id="Icon" filter="url(#filter0_d_4913_4928)">
<path id="Vector" fill-rule="evenodd" clip-rule="evenodd" d="M3.14785 4.23518C2.83325 4.6834 2.83325 6.01573 2.83325 8.68038V9.99264C2.83325 14.691 6.36572 16.9711 8.58205 17.9392C9.18326 18.2019 9.48387 18.3332 10.3333 18.3332C11.1826 18.3332 11.4832 18.2019 12.0845 17.9392C14.3008 16.9711 17.8333 14.691 17.8333 9.99264V8.68038C17.8333 6.01573 17.8333 4.6834 17.5187 4.23518C17.2041 3.78695 15.9513 3.35813 13.4458 2.5005L12.9685 2.3371C11.6624 1.89004 11.0094 1.6665 10.3333 1.6665C9.65709 1.6665 9.00407 1.89004 7.69802 2.3371L7.22068 2.5005C4.71519 3.35813 3.46244 3.78695 3.14785 4.23518ZM10.9583 7.49984C10.9583 7.15466 10.6784 6.87484 10.3333 6.87484C9.98807 6.87484 9.70825 7.15466 9.70825 7.49984L9.70825 9.37486H7.83325C7.48807 9.37486 7.20825 9.65468 7.20825 9.99986C7.20825 10.345 7.48807 10.6249 7.83325 10.6249H9.70825V12.4998C9.70825 12.845 9.98807 13.1248 10.3333 13.1248C10.6784 13.1248 10.9583 12.845 10.9583 12.4998V10.6249H12.8333C13.1784 10.6249 13.4583 10.345 13.4583 9.99986C13.4583 9.65468 13.1784 9.37486 12.8333 9.37486H10.9583L10.9583 7.49984Z" fill="white"/>
</g>
<defs>
<filter id="filter0_d_4913_4928" x="0.333252" y="0" width="20" height="22" filterUnits="userSpaceOnUse" color-interpolation-filters="sRGB">
<feFlood flood-opacity="0" result="BackgroundImageFix"/>
<feColorMatrix in="SourceAlpha" type="matrix" values="0 0 0 0 0 0 0 0 0 0 0 0 0 0 0 0 0 0 127 0" result="hardAlpha"/>
<feOffset dy="2"/>
<feComposite in2="hardAlpha" operator="out"/>
<feColorMatrix type="matrix" values="0 0 0 0 0 0 0 0 0 0 0 0 0 0 0 0 0 0 0.15 0"/>
<feBlend mode="normal" in2="BackgroundImageFix" result="effect1_dropShadow_4913_4928"/>
<feBlend mode="normal" in="SourceGraphic" in2="effect1_dropShadow_4913_4928" result="shape"/>
</filter>
</defs>
</svg>
