<svg width="14" height="14" viewBox="0 0 14 14" fill="none" xmlns="http://www.w3.org/2000/svg">
<g id="Bold / Security / Shield Minimalistic">
<path id="Vector" d="M1.75 6.07671C1.75 4.21145 1.75 3.27882 1.97022 2.96506C2.19043 2.65131 3.06736 2.35113 4.8212 1.75079L5.15534 1.63641C6.06957 1.32346 6.52669 1.16699 7 1.16699C7.47331 1.16699 7.93043 1.32347 8.84466 1.63641L9.1788 1.75079C10.9326 2.35113 11.8096 2.65131 12.0298 2.96506C12.25 3.27882 12.25 4.21145 12.25 6.07671C12.25 6.35845 12.25 6.66399 12.25 6.99528C12.25 10.2842 9.77727 11.8802 8.22584 12.5579C7.80499 12.7417 7.59457 12.8337 7 12.8337C6.40543 12.8337 6.19501 12.7417 5.77416 12.5579C4.22273 11.8802 1.75 10.2842 1.75 6.99528C1.75 6.66399 1.75 6.35845 1.75 6.07671Z" fill="white"/>
</g>
</svg>
