<svg width="14" height="14" viewBox="0 0 14 14" fill="none" xmlns="http://www.w3.org/2000/svg">
<g id="Bold / Arrows Action / Forward">
<path id="Vector" fill-rule="evenodd" clip-rule="evenodd" d="M8.14897 3.77365C8.31983 3.60279 8.59684 3.60279 8.76769 3.77365L11.6844 6.69031C11.8552 6.86117 11.8552 7.13818 11.6844 7.30903L8.76769 10.2257C8.59684 10.3966 8.31983 10.3966 8.14897 10.2257C7.97812 10.0548 7.97812 9.77784 8.14897 9.60698L10.3188 7.43717L5.54167 7.43717C5.12557 7.43717 4.49168 7.5656 3.97438 7.93805C3.4794 8.29444 3.0625 8.89226 3.0625 9.91634C3.0625 10.158 2.86662 10.3538 2.625 10.3538C2.38338 10.3538 2.1875 10.158 2.1875 9.91634C2.1875 8.60708 2.74282 7.74657 3.46312 7.22796C4.1611 6.72541 4.98555 6.56217 5.54167 6.56217L10.3188 6.56217L8.14897 4.39237C7.97812 4.22151 7.97812 3.9445 8.14897 3.77365Z" fill="white"/>
</g>
</svg>
