<svg width="24" height="24" viewBox="0 0 24 24" fill="none" xmlns="http://www.w3.org/2000/svg">
<g id="Bold / Essentional, UI / Sword">
<g id="Vector">
<path d="M19 3C19.9428 3 20.4142 3 20.7071 3.29289C21 3.58579 21 4.05719 21 5V7.05224C21 7.51813 21 7.75107 20.9037 7.95435C20.8073 8.15763 20.6271 8.30514 20.2665 8.60016L10 17L7.41421 19.5858C6.74755 20.2525 6.41421 20.5858 6 20.5858C5.58579 20.5858 5.25245 20.2525 4.58579 19.5858L4.41421 19.4142C3.74755 18.7475 3.41421 18.4142 3.41421 18C3.41421 17.5858 3.74755 17.2525 4.41421 16.5858L7 14L15.3998 3.73352C15.6949 3.37295 15.8424 3.19266 16.0456 3.09633C16.2489 3 16.4819 3 16.9478 3H19Z" fill="#434343"/>
<path d="M14.32 17.32L16.5858 19.5858C17.2525 20.2525 17.5858 20.5858 18 20.5858C18.4142 20.5858 18.7475 20.2525 19.4142 19.5858L19.5858 19.4142C20.2525 18.7475 20.5858 18.4142 20.5858 18C20.5858 17.5858 20.2525 17.2525 19.5858 16.5858L17.635 14.635" fill="#434343"/>
<path d="M10 5.5L8.60049 3.75061C8.30544 3.3818 8.15791 3.19739 7.95256 3.0987C7.74721 3 7.51106 3 7.03875 3H5C4.05719 3 3.58579 3 3.29289 3.29289C3 3.58579 3 4.05719 3 5V7.06325C3 7.52389 3 7.75421 3.09441 7.95578C3.18882 8.15735 3.36576 8.3048 3.71963 8.59969L6 10.5" fill="#434343"/>
<path d="M4.96616 12.9657C5.21035 12.7198 5.60767 12.7184 5.85361 12.9625L11.047 18.1191C11.2929 18.3633 11.2943 18.7606 11.0501 19.0065C10.8059 19.2525 10.4086 19.2539 10.1627 19.0097L4.96932 13.8531C4.72339 13.609 4.72197 13.2116 4.96616 12.9657Z" fill="#434343"/>
</g>
</g>
</svg>
