<svg width="89" height="88" viewBox="0 0 89 88" fill="none" xmlns="http://www.w3.org/2000/svg">
<g id="Icon" filter="url(#filter0_d_4607_5061)">
<g id="Vector">
<path d="M81.1664 29.9287L81.1664 30.1947C81.1663 33.3507 81.1662 34.9288 80.4065 36.2198C79.6469 37.5109 78.2674 38.2773 75.5085 39.81L72.5997 41.4261C74.6042 34.6496 75.2729 27.3687 75.5201 21.1421C75.5307 20.8751 75.5427 20.6048 75.5547 20.3317L75.5632 20.1404C77.9512 20.9697 79.2919 21.5879 80.1283 22.7485C81.1665 24.1889 81.1665 26.1022 81.1664 29.9287Z" fill="white"/>
<path d="M7.83325 29.9287L7.83326 30.1947C7.83335 33.3507 7.83339 34.9288 8.59309 36.2198C9.35278 37.5109 10.7322 38.2773 13.4911 39.81L16.4015 41.427C14.3969 34.6502 13.7281 27.369 13.4808 21.1421C13.4702 20.8751 13.4583 20.6048 13.4462 20.3317L13.4378 20.1399C11.0489 20.9695 9.70786 21.5877 8.87127 22.7485C7.8331 24.1889 7.83315 26.1022 7.83325 29.9287Z" fill="white"/>
<path fill-rule="evenodd" clip-rule="evenodd" d="M44.5005 7.3335C51.0401 7.3335 56.4278 7.90949 60.5494 8.60488C64.7247 9.30936 66.8124 9.6616 68.5567 11.8099C70.301 13.9582 70.2088 16.2801 70.0245 20.9239C69.3915 36.8665 65.9511 56.7795 47.2499 58.541V71.5002H52.494C54.2418 71.5002 55.7467 72.7338 56.0894 74.4477L56.7833 77.9168H66.4999C68.0187 77.9168 69.2499 79.148 69.2499 80.6668C69.2499 82.1856 68.0187 83.4168 66.4999 83.4168H22.4999C20.9811 83.4168 19.7499 82.1856 19.7499 80.6668C19.7499 79.148 20.9811 77.9168 22.4999 77.9168H32.2166L32.9104 74.4477C33.2532 72.7338 34.758 71.5002 36.5059 71.5002H41.7499V58.5409C23.0498 56.7787 19.6094 36.8662 18.9765 20.9239C18.7921 16.2801 18.7 13.9582 20.4443 11.8099C22.1886 9.6616 24.2762 9.30936 28.4516 8.60488C32.5731 7.90949 37.9608 7.3335 44.5005 7.3335ZM47.9919 22.7294L47.6314 22.0827C46.2381 19.5832 45.5415 18.3335 44.4999 18.3335C43.4584 18.3335 42.7617 19.5832 41.3684 22.0827L41.0079 22.7294C40.612 23.4396 40.414 23.7948 40.1054 24.0291C39.7967 24.2634 39.4123 24.3504 38.6434 24.5243L37.9434 24.6827C35.2378 25.2949 33.8849 25.601 33.5631 26.636C33.2412 27.671 34.1635 28.7495 36.008 30.9064L36.4852 31.4644C37.0094 32.0774 37.2715 32.3838 37.3894 32.763C37.5073 33.1421 37.4676 33.551 37.3884 34.3688L37.3163 35.1133C37.0374 37.9912 36.898 39.4301 37.7406 40.0697C38.5832 40.7094 39.8499 40.1262 42.3832 38.9598L43.0386 38.658C43.7584 38.3266 44.1184 38.1608 44.4999 38.1608C44.8815 38.1608 45.2414 38.3266 45.9613 38.658L46.6167 38.9598C49.15 40.1262 50.4166 40.7094 51.2593 40.0697C52.1019 39.4301 51.9624 37.9912 51.6836 35.1133L51.6114 34.3688C51.5322 33.551 51.4926 33.1421 51.6105 32.763C51.7284 32.3838 51.9904 32.0774 52.5146 31.4644L52.9918 30.9064C54.8363 28.7495 55.7586 27.671 55.4368 26.636C55.1149 25.601 53.7621 25.2949 51.0564 24.6827L50.3564 24.5243C49.5876 24.3504 49.2032 24.2634 48.8945 24.0291C48.5858 23.7948 48.3878 23.4396 47.9919 22.7294Z" fill="white"/>
</g>
</g>
<defs>
<filter id="filter0_d_4607_5061" x="0.5" y="0" width="88" height="90" filterUnits="userSpaceOnUse" color-interpolation-filters="sRGB">
<feFlood flood-opacity="0" result="BackgroundImageFix"/>
<feColorMatrix in="SourceAlpha" type="matrix" values="0 0 0 0 0 0 0 0 0 0 0 0 0 0 0 0 0 0 127 0" result="hardAlpha"/>
<feOffset dy="2"/>
<feComposite in2="hardAlpha" operator="out"/>
<feColorMatrix type="matrix" values="0 0 0 0 0 0 0 0 0 0 0 0 0 0 0 0 0 0 0.15 0"/>
<feBlend mode="normal" in2="BackgroundImageFix" result="effect1_dropShadow_4607_5061"/>
<feBlend mode="normal" in="SourceGraphic" in2="effect1_dropShadow_4607_5061" result="shape"/>
</filter>
</defs>
</svg>
